<mxfile host="app.diagrams.net" modified="2023-04-03T15:56:07.094Z" agent="5.0 (X11)" etag="YfOAsS3hB0DrWtMUmp92" version="21.0.6" type="github">
  <diagram name="Page-1" id="urGqOtuxtQgJXz_80cXV">
    <mxGraphModel dx="1375" dy="795" grid="1" gridSize="10" guides="1" tooltips="1" connect="1" arrows="1" fold="1" page="1" pageScale="1" pageWidth="827" pageHeight="1169" math="0" shadow="0">
      <root>
        <mxCell id="0" />
        <mxCell id="1" parent="0" />
      </root>
    </mxGraphModel>
  </diagram>
</mxfile>
